<?xml version="1.0" standalone="no"?>
<!DOCTYPE svg PUBLIC "-//W3C//DTD SVG 20010904//EN"
 "http://www.w3.org/TR/2001/REC-SVG-20010904/DTD/svg10.dtd">
<svg version="1.0" xmlns="http://www.w3.org/2000/svg"
 width="200.000000pt" height="200.000000pt" viewBox="0 0 200.000000 200.000000"
 preserveAspectRatio="xMidYMid meet">

<g transform="translate(0.000000,200.000000) scale(0.100000,-0.100000)"
fill="#000000" stroke="none">
<path d="M870 1990 c-597 -84 -981 -655 -834 -1240 138 -546 713 -869 1254
-704 526 160 823 717 664 1244 -123 406 -486 686 -912 704 -59 3 -136 1 -172
-4z m-322 -826 c46 -6 52 -10 52 -30 0 -51 -6 -54 -107 -54 -108 0 -155 -16
-178 -61 -22 -41 -18 -77 9 -104 29 -29 72 -38 165 -33 78 3 82 -1 61 -56 -9
-25 -12 -26 -106 -26 -127 0 -193 20 -241 73 -33 37 -35 43 -31 97 3 43 11 67
31 93 57 75 204 117 345 101z m400 0 c46 -6 52 -10 52 -30 0 -53 -5 -55 -106
-48 -79 6 -97 4 -120 -10 -15 -10 -22 -22 -17 -27 4 -4 46 -19 91 -32 91 -27
132 -56 132 -97 0 -68 -75 -111 -205 -118 -107 -5 -175 9 -175 38 0 48 6 50
109 44 67 -5 104 -3 119 5 41 22 25 39 -61 65 -126 39 -163 76 -133 134 32 61
165 93 314 76z m382 -21 c73 -33 94 -63 98 -141 3 -58 0 -72 -20 -102 -28 -41
-77 -76 -127 -90 -43 -12 -238 -13 -245 -2 -5 8 20 281 30 329 5 29 22 32 129
29 64 -2 103 -9 135 -23z m472 0 c18 -10 41 -35 51 -56 17 -33 17 -47 8 -144
-6 -58 -11 -115 -11 -125 0 -15 -8 -18 -55 -18 -64 0 -63 -5 -45 139 6 45 8
92 4 103 -8 27 -60 46 -110 41 l-42 -5 -13 -136 -14 -137 -52 -3 c-50 -3 -53
-2 -53 21 0 30 30 321 34 324 1 1 27 7 57 12 81 15 202 7 241 -16z"/>
<path d="M1156 1043 c-3 -27 -8 -74 -12 -105 l-6 -58 46 0 c76 0 146 51 146
107 0 64 -50 103 -131 103 -37 0 -37 0 -43 -47z"/>
</g>
</svg>
